<?xml version="1.0" encoding="UTF-8"?> <svg xmlns="http://www.w3.org/2000/svg" id="Layer_2" data-name="Layer 2" viewBox="0 0 185.02 50.29"><defs><style>.cls-1{fill:#0f0}.cls-2{fill:#00f}</style></defs><g id="NAV_-_AKkurat" data-name="NAV - AKkurat"><path class="cls-2" d="M173.41 3.8h11.17V.33h-14.97v24.96h15.41v-3.42h-11.61v-7.86h9.73v-3.46h-9.73V3.8zM120.72 9.96h-.08L117.73.33h-5.86v24.96h3.79V4.5h.08l3.43 12.72h3.02l3.43-12.72h.07l.01 20.79h3.8L129.49.33h-5.86l-2.91 9.63zM67.36 14.68h-5.49L64.6 3.84h.07l2.69 10.84Zm.85 3.47 1.81 7.15h3.83L67.03.33H62.2l-6.81 24.96h3.83l1.76-7.15h7.23Z"></path><path class="cls-1" d="M143.91 28.75h4.5c2.4 0 5.27.41 5.27 3.5s-2.4 3.28-4.76 3.28h-5.01v-6.78Zm0 9.92h4.94c2.91 0 5.42.66 5.42 4.17 0 3.32-2.51 3.98-5.24 3.98h-5.13v-8.15Zm5.83 11.61c5.79 0 8.33-3.65 8.33-7.45 0-2.43-1.29-5.05-3.8-5.6v-.07c2.03-.7 3.21-2.62 3.21-4.72 0-5.53-4.61-7.15-9.29-7.15h-8.07v25h9.62ZM95.39 39.63H89.9l2.73-10.84h.07l2.69 10.84Zm.85 3.47 1.81 7.19h3.83l-6.82-25h-4.83l-6.82 25h3.83l1.77-7.19h7.23ZM33.22 46.82V25.29h-3.8v25h16.6v-3.47h-12.8z"></path><path class="cls-2" d="M13.02 15.41v6.19c-.96.37-1.95.59-3.06.59-5.53 0-6.16-5.35-6.16-9.73 0-4.72.88-9 6.19-9 1.66 0 2.65.41 3.02 1.88h3.8v-.3c0-2.54-3.17-5.05-6.82-5.05C2.21 0 0 6.08 0 12.79s2.06 12.87 9.62 12.87c2.4 0 4.98-.59 7.19-1.51v-12.2H7.85v3.47h5.16Z"></path></g></svg> 